<svg width="53" height="53" viewBox="0 0 53 53" fill="none" xmlns="http://www.w3.org/2000/svg">
<g clip-path="url(#clip0_115_4)">
<path d="M0 26.5C0 19.4718 2.79196 12.7314 7.76167 7.76167C12.7314 2.79196 19.4718 0 26.5 0C33.5282 0 40.2686 2.79196 45.2383 7.76167C50.208 12.7314 53 19.4718 53 26.5C53 33.5282 50.208 40.2686 45.2383 45.2383C40.2686 50.208 33.5282 53 26.5 53C19.4718 53 12.7314 50.208 7.76167 45.2383C2.79196 40.2686 0 33.5282 0 26.5ZM16.7178 17.5873C15.4549 17.049 13.9953 17.6287 13.457 18.8916C12.9188 20.1545 13.4984 21.6141 14.7613 22.1523L15.9932 22.6803C17.784 23.4463 19.6369 24.0156 21.5416 24.3676V29.5537C21.5416 29.9988 21.4691 30.4439 21.3242 30.858L18.3533 39.7707C17.9186 41.075 18.6225 42.4828 19.9268 42.9176C21.2311 43.3523 22.6389 42.6484 23.0736 41.3441L25.5994 33.7668C25.734 33.3734 26.0963 33.1043 26.5104 33.1043C26.9244 33.1043 27.2971 33.3734 27.4213 33.7668L29.9471 41.3441C30.3818 42.6484 31.7896 43.3523 33.0939 42.9176C34.3982 42.4828 35.1021 41.075 34.6674 39.7707L31.6965 30.858C31.5516 30.4336 31.4791 29.9988 31.4791 29.5537V24.3779C33.3838 24.0156 35.2367 23.4566 37.0275 22.6906L38.2594 22.1627C39.5223 21.6244 40.102 20.1648 39.5637 18.902C39.0254 17.6391 37.5658 17.0594 36.3029 17.5977L35.0607 18.1152C32.359 19.2746 29.4502 19.875 26.5 19.875C23.5498 19.875 20.6514 19.2746 17.9393 18.1152L16.7074 17.5873H16.7178ZM26.5 16.5625C27.5982 16.5625 28.6513 16.1263 29.4279 15.3497C30.2044 14.5732 30.6406 13.52 30.6406 12.4219C30.6406 11.3237 30.2044 10.2705 29.4279 9.49401C28.6513 8.71749 27.5982 8.28125 26.5 8.28125C25.4018 8.28125 24.3487 8.71749 23.5721 9.49401C22.7956 10.2705 22.3594 11.3237 22.3594 12.4219C22.3594 13.52 22.7956 14.5732 23.5721 15.3497C24.3487 16.1263 25.4018 16.5625 26.5 16.5625Z" fill="#373737"/>
</g>
<defs>
<clipPath id="clip0_115_4">
<rect width="53" height="53" fill="white"/>
</clipPath>
</defs>
</svg>
