<svg width="38" height="53" viewBox="0 0 38 53" fill="none" xmlns="http://www.w3.org/2000/svg">
<path d="M0.524658 9.91601C0.524658 4.43955 4.96422 0 10.4407 0H27.4554C32.9319 0 37.3715 4.43955 37.3715 9.91601C37.3715 13.3837 35.5914 16.4358 32.8951 18.2081C35.5914 19.9805 37.3715 23.0324 37.3715 26.5002C37.3715 31.9767 32.9319 36.4163 27.4554 36.4163H27.2401C24.6727 36.4163 22.3331 35.4405 20.5721 33.8397V42.9763C20.5721 48.5257 16.0165 53 10.4941 53C5.03132 53 0.524658 48.574 0.524658 43.0839C0.524658 39.6164 2.30456 36.5645 5.00059 34.7921C2.30456 33.0197 0.524658 29.9678 0.524658 26.5002C0.524658 23.0324 2.30471 19.9805 5.00093 18.2081C2.30471 16.4358 0.524658 13.3837 0.524658 9.91601ZM17.324 19.8322H10.4407C6.75808 19.8322 3.77275 22.8176 3.77275 26.5002C3.77275 30.1686 6.73506 33.1451 10.3981 33.1681C10.4123 33.168 10.4264 33.168 10.4407 33.168H17.324V19.8322ZM20.5721 26.5002C20.5721 30.1828 23.5574 33.1682 27.2401 33.1682H27.4554C31.1381 33.1682 34.1233 30.1828 34.1233 26.5002C34.1233 22.8176 31.1381 19.8322 27.4554 19.8322H27.2401C23.5574 19.8322 20.5721 22.8176 20.5721 26.5002ZM10.4407 36.4163C10.4264 36.4163 10.4123 36.4162 10.3981 36.4162C6.73506 36.4391 3.77275 39.4155 3.77275 43.0839C3.77275 46.753 6.79796 49.7519 10.4941 49.7519C14.2499 49.7519 17.324 46.7048 17.324 42.9763V36.4163H10.4407ZM10.4407 3.24809C6.75808 3.24809 3.77275 6.23343 3.77275 9.91601C3.77275 13.5986 6.75808 16.5839 10.4407 16.5839H17.324V3.24809H10.4407ZM20.5721 16.5839H27.4554C31.1381 16.5839 34.1233 13.5986 34.1233 9.91601C34.1233 6.23343 31.1381 3.24809 27.4554 3.24809H20.5721V16.5839Z" fill="#373737"/>
</svg>
