<svg width="53" height="53" viewBox="0 0 53 53" fill="none" xmlns="http://www.w3.org/2000/svg">
<path d="M52.0013 24.1399L28.8667 0.999287C28.2262 0.359423 27.3579 0 26.4526 0C25.5473 0 24.679 0.359423 24.0386 0.999287L19.2283 5.80604L25.3234 11.9011C28.5248 10.8198 31.5557 13.8851 30.4567 17.0687L36.3317 22.9438C40.3813 21.5478 43.5697 26.6113 40.528 29.6505C37.3941 32.7844 32.2218 29.311 33.9029 25.233L28.4195 19.7566V34.1722C31.4126 35.6557 31.0529 39.1233 29.4937 40.679C28.7319 41.4404 27.6989 41.8681 26.6218 41.8681C25.5447 41.8681 24.5118 41.4404 23.7499 40.679C21.6713 38.5968 22.4403 35.1293 25.0809 34.0539V19.5023C22.6201 18.4955 22.1706 15.8656 22.8757 14.1785L16.8669 8.16269L0.999776 24.0322C0.359623 24.6725 0 25.5408 0 26.4462C0 27.3516 0.359623 28.22 0.999776 28.8602L24.1415 52.0008C24.7818 52.6406 25.6498 53 26.555 53C27.4601 53 28.3282 52.6406 28.9684 52.0008L52.0013 28.9679C52.6415 28.3276 53.0011 27.4593 53.0011 26.5539C53.0011 25.6485 52.6415 24.7801 52.0013 24.1399Z" fill="#373737"/>
</svg>
