<svg width="55" height="55" viewBox="0 0 55 55" fill="none" xmlns="http://www.w3.org/2000/svg">
<path d="M0 0V54.1729H55V0H0ZM29.9308 42.25C29.9308 47.5222 26.7879 49.9286 22.2087 49.9286C18.0714 49.9286 15.6775 47.8245 14.4498 45.2731L18.6607 42.77C19.471 44.1848 20.2076 45.3819 21.9877 45.3819C23.6819 45.3819 24.7623 44.7289 24.7623 42.1775V24.8736H29.9308V42.25ZM42.1585 49.9286C37.3583 49.9286 34.2522 47.6794 32.7422 44.7289L36.9531 42.3347C38.058 44.1122 39.5067 45.4303 42.048 45.4303C44.1842 45.4303 45.5592 44.3783 45.5592 42.9151C45.5592 41.1738 44.1596 40.5571 41.7902 39.5293L40.5011 38.9852C36.769 37.4253 34.3013 35.4542 34.3013 31.3066C34.3013 27.4855 37.26 24.5834 41.8638 24.5834C45.154 24.5834 47.5112 25.708 49.2054 28.6584L45.1786 31.1978C44.2946 29.6379 43.3371 29.0212 41.8516 29.0212C40.3415 29.0212 39.3839 29.9644 39.3839 31.1978C39.3839 32.7214 40.3415 33.3381 42.5636 34.2934L43.8527 34.8375C48.2478 36.6877 50.7154 38.5861 50.7154 42.8426C50.7154 47.4134 47.0569 49.9286 42.1585 49.9286Z" fill="#373737"/>
</svg>
