<svg width="137" height="29" viewBox="0 0 137 29" fill="none" xmlns="http://www.w3.org/2000/svg">
<path d="M4.536 20.292H10.176V22.5H1.8V5.82H4.536V20.292ZM23.5201 19.092H16.5361L15.3361 22.5H12.4801L18.4561 5.796H21.6241L27.6001 22.5H24.7201L23.5201 19.092ZM22.7521 16.86L20.0401 9.108L17.3041 16.86H22.7521ZM39.8624 22.5L36.0224 15.828H33.9344V22.5H31.1984V5.82H36.9584C38.2384 5.82 39.3184 6.044 40.1984 6.492C41.0944 6.94 41.7584 7.54 42.1904 8.292C42.6384 9.044 42.8624 9.884 42.8624 10.812C42.8624 11.9 42.5424 12.892 41.9024 13.788C41.2784 14.668 40.3104 15.268 38.9984 15.588L43.1264 22.5H39.8624ZM33.9344 13.644H36.9584C37.9824 13.644 38.7504 13.388 39.2624 12.876C39.7904 12.364 40.0544 11.676 40.0544 10.812C40.0544 9.948 39.7984 9.276 39.2864 8.796C38.7744 8.3 37.9984 8.052 36.9584 8.052H33.9344V13.644ZM57.4185 19.092H50.4345L49.2345 22.5H46.3785L52.3545 5.796H55.5225L61.4985 22.5H58.6185L57.4185 19.092ZM56.6505 16.86L53.9385 9.108L51.2025 16.86H56.6505ZM89.8993 5.82V22.5H87.1633V11.076L82.0753 22.5H80.1793L75.0673 11.076V22.5H72.3313V5.82H75.2833L81.1393 18.9L86.9713 5.82H89.8993ZM97.2313 8.028V12.924H102.991V15.156H97.2313V20.268H103.711V22.5H94.4953V5.796H103.711V8.028H97.2313ZM110.817 20.292H116.457V22.5H108.081V5.82H110.817V20.292ZM127.353 22.668C125.801 22.668 124.369 22.308 123.057 21.588C121.761 20.852 120.729 19.836 119.961 18.54C119.209 17.228 118.833 15.756 118.833 14.124C118.833 12.492 119.209 11.028 119.961 9.732C120.729 8.436 121.761 7.428 123.057 6.708C124.369 5.972 125.801 5.604 127.353 5.604C128.921 5.604 130.353 5.972 131.649 6.708C132.961 7.428 133.993 8.436 134.745 9.732C135.497 11.028 135.873 12.492 135.873 14.124C135.873 15.756 135.497 17.228 134.745 18.54C133.993 19.836 132.961 20.852 131.649 21.588C130.353 22.308 128.921 22.668 127.353 22.668ZM127.353 20.292C128.457 20.292 129.441 20.044 130.305 19.548C131.169 19.036 131.841 18.316 132.321 17.388C132.817 16.444 133.065 15.356 133.065 14.124C133.065 12.892 132.817 11.812 132.321 10.884C131.841 9.956 131.169 9.244 130.305 8.748C129.441 8.252 128.457 8.004 127.353 8.004C126.249 8.004 125.265 8.252 124.401 8.748C123.537 9.244 122.857 9.956 122.361 10.884C121.881 11.812 121.641 12.892 121.641 14.124C121.641 15.356 121.881 16.444 122.361 17.388C122.857 18.316 123.537 19.036 124.401 19.548C125.265 20.044 126.249 20.292 127.353 20.292Z" fill="#333333"/>
</svg>
