<svg width="58" height="58" viewBox="0 0 58 58" fill="none" xmlns="http://www.w3.org/2000/svg">
<path d="M47.3742 20.0735C46.7625 19.8696 46.1508 19.677 45.5391 19.4958C45.641 19.0766 45.7316 18.6575 45.8223 18.2383C47.2156 11.4868 46.298 6.0606 43.2055 4.27075C40.2262 2.5602 35.3664 4.33872 30.45 8.62075C29.9629 9.03989 29.4871 9.48169 29.034 9.92349C28.7281 9.62895 28.4109 9.33442 28.0938 9.05122C22.9395 4.47466 17.7738 2.54888 14.6813 4.35005C11.7133 6.07192 10.8297 11.1809 12.0758 17.57C12.2004 18.2043 12.3363 18.8274 12.4949 19.4618C11.7699 19.6657 11.0562 19.8922 10.3879 20.1301C4.33867 22.2258 0 25.5336 0 28.9547C0 32.4891 4.62188 36.0348 10.909 38.1872C11.4188 38.3571 11.9285 38.527 12.4496 38.6743C12.2797 39.354 12.1324 40.0223 11.9965 40.7133C10.807 47.0004 11.7359 51.9848 14.7039 53.6954C17.7625 55.4626 22.9055 53.6501 27.9125 49.2661C28.309 48.9149 28.7055 48.5524 29.102 48.1672C29.6004 48.6543 30.1215 49.1188 30.6426 49.5719C35.491 53.7407 40.2828 55.4286 43.2395 53.718C46.298 51.9508 47.2949 46.5926 46.0035 40.0676C45.9016 39.5692 45.7883 39.0594 45.6637 38.5383C46.0262 38.4364 46.3773 38.3231 46.7285 38.2098C53.2648 36.0461 58 32.5458 58 28.9547C58 25.5223 53.5367 22.1918 47.3742 20.0735ZM32.0473 10.4559C36.2613 6.7856 40.1922 5.34692 41.982 6.37778C43.8965 7.47661 44.6328 11.9172 43.432 17.7512C43.3527 18.1364 43.2734 18.5102 43.1715 18.884C40.6566 18.3176 38.1078 17.9098 35.5477 17.6833C34.075 15.5762 32.4664 13.5598 30.7219 11.668C31.1637 11.2489 31.5941 10.8524 32.0473 10.4559ZM18.9406 34.834C19.5184 35.8196 20.1074 36.8051 20.7305 37.768C18.9633 37.5754 17.2074 37.2922 15.4742 36.9184C15.9727 35.2872 16.5957 33.5993 17.3207 31.8774C17.8418 32.8743 18.3742 33.8598 18.9406 34.834ZM15.5082 21.2063C17.1395 20.8438 18.8727 20.5493 20.6738 20.3227C20.0734 21.2629 19.4844 22.2258 18.9293 23.2C18.3742 24.1629 17.8305 25.1485 17.3207 26.1454C16.607 24.4575 16.0066 22.8036 15.5082 21.2063ZM18.6121 29.0114C19.3598 27.4481 20.1754 25.9188 21.0363 24.4122C21.8973 22.9055 22.8262 21.4442 23.8004 20.0055C25.4996 19.8809 27.2328 19.8129 29 19.8129C30.7672 19.8129 32.5117 19.8809 34.1996 20.0055C35.1625 21.4329 36.0801 22.8942 36.9523 24.3895C37.8246 25.8848 38.6402 27.4141 39.4105 28.9661C38.6516 30.5293 37.8359 32.07 36.9637 33.5879C36.1027 35.0946 35.1852 36.5559 34.2223 38.0059C32.5344 38.1305 30.7785 38.1872 29 38.1872C27.2215 38.1872 25.4996 38.1305 23.8344 38.0286C22.8488 36.5899 21.9199 35.1172 21.0477 33.6106C20.1754 32.104 19.3711 30.5747 18.6121 29.0114ZM39.0707 34.8114C39.6484 33.8145 40.1922 32.8063 40.7246 31.7868C41.4496 33.4293 42.084 35.0946 42.6391 36.8051C40.8832 37.2016 39.1047 37.5075 37.3148 37.7114C37.9266 36.7598 38.5043 35.7856 39.0707 34.8114ZM40.702 26.1454C40.1695 25.1485 39.6258 24.1516 39.0594 23.1774C38.5043 22.2145 37.9266 21.2629 37.3262 20.3227C39.15 20.5493 40.8945 20.8551 42.5258 21.229C42.0047 22.9055 41.393 24.5368 40.702 26.1454ZM29.0227 13.4012C30.2121 14.6926 31.3336 16.052 32.3758 17.4567C30.1328 17.3547 27.8785 17.3547 25.6355 17.4567C26.7457 15.9954 27.8898 14.636 29.0227 13.4012ZM15.882 6.45708C17.7852 5.34692 22.0105 6.93286 26.4625 10.875C26.7457 11.1243 27.0289 11.3961 27.3234 11.668C25.5676 13.5598 23.9477 15.5762 22.4637 17.6833C19.9035 17.9098 17.366 18.3063 14.8512 18.8614C14.7039 18.2836 14.5793 17.6946 14.4547 17.1055C13.3898 11.6227 14.0922 7.48794 15.882 6.45708ZM13.1066 36.318C12.6309 36.1821 12.1664 36.0348 11.702 35.8762C9.28906 35.1172 6.54766 33.9165 4.56523 32.3418C3.42109 31.5489 2.65078 30.3254 2.43555 28.9547C2.43555 26.8817 6.01523 24.2309 11.1809 22.4297C11.8266 22.2032 12.4836 21.9993 13.1406 21.8067C13.9109 24.2649 14.8398 26.6778 15.916 29.0114C14.8285 31.379 13.8883 33.8258 13.1066 36.318ZM26.3152 47.4196C24.4461 49.1301 22.2824 50.4895 19.9262 51.4184C18.6687 52.0188 17.2188 52.0754 15.9273 51.5657C14.1262 50.5235 13.3785 46.5247 14.398 41.1438C14.5227 40.5094 14.6586 39.875 14.8172 39.252C17.3547 39.7958 19.9148 40.1696 22.509 40.3622C24.0043 42.4805 25.6469 44.5083 27.4027 46.4114C27.0402 46.7626 26.6777 47.1024 26.3152 47.4196ZM29.0906 44.6668C27.9352 43.4208 26.7797 42.0387 25.6582 40.5547C26.7457 40.6 27.8672 40.6227 29 40.6227C30.1668 40.6227 31.3109 40.6 32.4437 40.5434C31.4016 41.9821 30.2801 43.3528 29.0906 44.6668ZM43.8965 48.0653C43.7945 49.4473 43.1148 50.7387 42.0273 51.611C40.2262 52.6532 36.3859 51.2938 32.2398 47.7368C31.7641 47.329 31.2883 46.8872 30.8012 46.434C32.5344 44.5196 34.1316 42.4918 35.5816 40.3622C38.1758 40.1469 40.7586 39.7504 43.3074 39.1727C43.4207 39.6372 43.5227 40.1016 43.6133 40.5547C44.1684 43.0016 44.259 45.5504 43.8965 48.0653ZM45.9582 35.8875C45.641 35.9895 45.3238 36.0915 44.9953 36.1821C44.2023 33.7125 43.2281 31.2997 42.1066 28.9547C43.1941 26.6438 44.1117 24.2649 44.882 21.8293C45.4711 21.9993 46.0375 22.1805 46.5813 22.3618C51.8602 24.1743 55.5645 26.8704 55.5645 28.9321C55.5645 31.1524 51.6109 34.0184 45.9582 35.8875ZM29 34.1883C31.866 34.1883 34.1883 31.8661 34.1883 29C34.1883 26.134 31.866 23.8118 29 23.8118C26.134 23.8118 23.8117 26.134 23.8117 29C23.8117 31.8661 26.134 34.1883 29 34.1883Z" fill="#373737"/>
</svg>
