<svg width="40" height="54" viewBox="0 0 40 54" fill="none" xmlns="http://www.w3.org/2000/svg">
<g clip-path="url(#clip0_115_18)">
<path d="M1.66666 6.66716C1.66666 2.99007 4.65624 0.000488281 8.33332 0.000488281H31.6667C35.3437 0.000488281 38.3333 2.99007 38.3333 6.66716V46.6672C38.3333 50.3442 35.3437 53.3338 31.6667 53.3338H8.33332C4.65624 53.3338 1.66666 50.3442 1.66666 46.6672V6.66716ZM23.3333 46.6672C23.3333 45.7831 22.9821 44.9353 22.357 44.3101C21.7319 43.685 20.884 43.3338 20 43.3338C19.1159 43.3338 18.2681 43.685 17.643 44.3101C17.0178 44.9353 16.6667 45.7831 16.6667 46.6672C16.6667 47.5512 17.0178 48.3991 17.643 49.0242C18.2681 49.6493 19.1159 50.0005 20 50.0005C20.884 50.0005 21.7319 49.6493 22.357 49.0242C22.9821 48.3991 23.3333 47.5512 23.3333 46.6672ZM31.6667 6.66716H8.33332V40.0005H31.6667V6.66716Z" fill="#373737"/>
</g>
<defs>
<clipPath id="clip0_115_18">
<rect width="40" height="53.3333" fill="white"/>
</clipPath>
</defs>
</svg>
