<svg width="49" height="49" viewBox="0 0 49 49" fill="none" xmlns="http://www.w3.org/2000/svg">
<path d="M39.8067 19.9033C39.8067 24.2955 38.3809 28.3527 35.9791 31.6444L48.0934 43.7682C49.2895 44.9643 49.2895 46.9068 48.0934 48.1029C46.8972 49.299 44.9547 49.299 43.7586 48.1029L31.6444 35.9791C28.3527 38.3905 24.2955 39.8067 19.9033 39.8067C8.90866 39.8067 0 30.898 0 19.9033C0 8.90865 8.90866 0 19.9033 0C30.898 0 39.8067 8.90865 39.8067 19.9033ZM19.9033 33.6826C21.7129 33.6826 23.5046 33.3262 25.1764 32.6337C26.8482 31.9412 28.3672 30.9262 29.6467 29.6467C30.9262 28.3672 31.9412 26.8482 32.6337 25.1764C33.3262 23.5046 33.6826 21.7128 33.6826 19.9033C33.6826 18.0938 33.3262 16.302 32.6337 14.6302C31.9412 12.9585 30.9262 11.4395 29.6467 10.1599C28.3672 8.88043 26.8482 7.86545 25.1764 7.17298C23.5046 6.48051 21.7129 6.1241 19.9033 6.1241C18.0938 6.1241 16.302 6.48051 14.6303 7.17298C12.9585 7.86545 11.4395 8.88043 10.1599 10.1599C8.88043 11.4395 7.86546 12.9585 7.17298 14.6302C6.48051 16.302 6.1241 18.0938 6.1241 19.9033C6.1241 21.7128 6.48051 23.5046 7.17298 25.1764C7.86546 26.8482 8.88043 28.3672 10.1599 29.6467C11.4395 30.9262 12.9585 31.9412 14.6303 32.6337C16.302 33.3262 18.0938 33.6826 19.9033 33.6826Z" fill="#373737"/>
</svg>
