<svg width="62" height="49" viewBox="0 0 62 49" fill="none" xmlns="http://www.w3.org/2000/svg">
<path d="M15.3125 6.125C15.3125 2.74668 18.0592 0 21.4375 0H55.125C58.5033 0 61.25 2.74668 61.25 6.125V33.6875C61.25 37.0658 58.5033 39.8125 55.125 39.8125H32.2328C31.1035 37.3721 29.3713 35.2666 27.218 33.6875H36.75V30.625C36.75 28.9311 38.1186 27.5625 39.8125 27.5625H45.9375C47.6314 27.5625 49 28.9311 49 30.625V33.6875H55.125V6.125H21.4375V10.824C19.6383 9.78086 17.5424 9.1875 15.3125 9.1875V6.125ZM15.3125 12.25C16.519 12.25 17.7137 12.4876 18.8284 12.9494C19.9431 13.4111 20.9559 14.0878 21.809 14.941C22.6622 15.7941 23.3389 16.8069 23.8006 17.9216C24.2624 19.0363 24.5 20.231 24.5 21.4375C24.5 22.644 24.2624 23.8387 23.8006 24.9534C23.3389 26.0681 22.6622 27.0809 21.809 27.934C20.9559 28.7872 19.9431 29.4639 18.8284 29.9256C17.7137 30.3874 16.519 30.625 15.3125 30.625C14.106 30.625 12.9113 30.3874 11.7966 29.9256C10.6819 29.4639 9.66909 28.7872 8.81596 27.934C7.96282 27.0809 7.28607 26.0681 6.82436 24.9534C6.36264 23.8387 6.125 22.644 6.125 21.4375C6.125 20.231 6.36264 19.0363 6.82436 17.9216C7.28607 16.8069 7.96282 15.7941 8.81596 14.941C9.66909 14.0878 10.6819 13.4111 11.7966 12.9494C12.9113 12.4876 14.106 12.25 15.3125 12.25ZM12.7572 33.6875H17.8582C24.9115 33.6875 30.625 39.401 30.625 46.4447C30.625 47.8516 29.4861 49 28.0697 49H2.55527C1.13887 49 0 47.8611 0 46.4447C0 39.401 5.71348 33.6875 12.7572 33.6875Z" fill="#373737"/>
</svg>
